<?xml version="1.0" standalone="no"?>
<!DOCTYPE svg PUBLIC "-//W3C//DTD SVG 20010904//EN"
 "http://www.w3.org/TR/2001/REC-SVG-20010904/DTD/svg10.dtd">
<svg version="1.0" xmlns="http://www.w3.org/2000/svg"
 width="300.000000pt" height="300.000000pt" viewBox="0 0 300.000000 300.000000"
 preserveAspectRatio="xMidYMid meet">
<metadata>
Created by potrace 1.14, written by Peter Selinger 2001-2017
</metadata>
<g transform="translate(0.000000,300.000000) scale(0.100000,-0.100000)"
fill="#000000" stroke="none">
<path d="M1193 2628 c-18 -5 -35 -13 -38 -18 -3 -6 -14 -10 -23 -10 -36 0
-198 -136 -246 -206 -11 -17 -34 -50 -50 -73 -39 -56 -55 -122 -46 -191 9 -74
5 -173 -10 -200 -6 -12 -9 -24 -7 -27 3 -3 13 10 23 28 18 35 28 189 12 189
-13 0 -9 84 7 131 37 105 193 273 307 329 75 37 90 40 204 40 76 1 112 -4 156
-19 32 -12 65 -21 74 -21 33 0 144 -84 192 -146 43 -54 132 -249 142 -310 6
-33 18 -87 29 -121 13 -44 16 -64 8 -72 -8 -8 -8 -11 1 -11 7 0 12 -13 12 -29
0 -40 -29 -149 -49 -186 l-16 -30 -6 65 c-6 68 -33 204 -50 247 -5 13 -9 37
-9 52 0 34 -49 111 -71 111 -9 0 -23 -7 -30 -17 -13 -15 -12 -15 7 -5 30 16
61 -9 70 -54 7 -39 -4 -57 -36 -59 -24 -2 -27 10 -4 19 16 6 11 26 -7 26 -6 0
-7 -4 -4 -10 3 -5 1 -10 -4 -10 -6 0 -11 11 -11 25 0 16 6 25 15 25 8 0 15 5
15 10 0 7 -6 7 -19 1 -10 -6 -22 -7 -25 -3 -4 4 -4 -7 0 -23 15 -56 8 -102
-25 -170 -80 -163 -267 -270 -396 -227 -86 29 -126 54 -169 110 -76 99 -100
157 -100 240 0 72 -10 94 -22 47 -7 -27 -1 -118 10 -150 5 -15 4 -14 -5 3 -7
12 -15 22 -19 22 -12 0 0 -72 16 -100 l15 -25 -7 25 c-9 35 -11 46 -7 38 3 -5
11 -8 18 -8 7 0 24 -15 39 -34 29 -39 34 -91 16 -187 -14 -80 -64 -228 -68
-202 -2 12 2 31 8 43 6 12 13 58 14 103 2 45 2 64 -1 42 -2 -22 -10 -68 -18
-102 -9 -33 -15 -74 -14 -90 1 -15 -11 -66 -26 -113 -29 -92 -76 -248 -120
-402 -16 -54 -31 -98 -35 -98 -16 0 -30 135 -26 265 3 111 8 152 25 197 11 32
21 66 21 77 0 10 16 42 36 71 34 50 80 180 63 180 -4 0 -13 -25 -20 -55 -7
-30 -22 -70 -33 -87 l-21 -33 -7 150 c-4 83 -12 185 -17 227 -10 73 -9 79 15
122 14 25 24 54 22 63 -3 12 -14 -5 -33 -45 -15 -35 -41 -74 -57 -87 -16 -14
-24 -25 -17 -25 7 0 20 7 30 16 17 15 18 15 23 -7 3 -13 7 -73 10 -134 3 -60
8 -133 12 -160 4 -29 1 -76 -6 -110 -7 -33 -14 -69 -16 -80 -2 -11 -13 -56
-24 -100 -17 -65 -21 -108 -20 -225 1 -196 17 -262 56 -229 16 13 17 4 11
-145 -4 -88 -11 -162 -17 -166 -28 -17 -41 -212 -16 -237 12 -13 14 3 5 52
-10 55 2 132 28 174 12 19 15 60 14 205 l-1 181 46 160 c25 88 48 167 51 175
3 11 12 6 31 -20 57 -74 118 -132 158 -151 24 -10 55 -35 70 -54 26 -35 26
-36 8 -57 -19 -21 -19 -21 3 -9 20 10 24 7 49 -46 l28 -56 -22 -15 c-12 -8
-22 -19 -22 -24 0 -5 13 1 30 13 28 21 29 23 15 55 -8 19 -30 61 -49 94 -19
33 -34 60 -32 60 16 0 83 -35 90 -47 6 -11 10 -12 15 -4 6 8 17 8 42 -3 19 -8
64 -18 99 -22 36 -3 69 -9 74 -12 16 -9 -39 -31 -84 -33 -45 -2 -45 -2 -7 -6
l38 -4 -35 -39 c-34 -38 -72 -100 -61 -100 3 0 1 -9 -6 -21 -6 -12 -12 -37
-14 -55 -2 -27 3 -39 23 -54 27 -22 62 -26 79 -9 7 7 12 -19 16 -86 3 -53 8
-99 11 -102 3 -3 17 -3 31 1 l25 6 -6 168 c-4 103 -11 170 -18 174 -7 5 -7 8
-1 8 6 0 11 9 11 21 0 19 -1 19 -13 3 -10 -14 -13 -14 -13 -3 -1 19 -36 -45
-55 -103 -21 -60 -40 -64 -31 -7 9 55 49 132 80 152 23 16 26 16 35 -1 10 -16
10 -15 11 3 0 27 44 -68 63 -135 59 -220 60 -221 91 -218 16 2 31 10 34 18 4
12 2 13 -9 2 -32 -30 -45 -14 -72 87 -15 55 -27 104 -27 110 0 20 19 11 26
-11 12 -42 67 -168 71 -165 2 2 -8 33 -21 68 l-24 63 21 11 c11 5 22 17 25 25
2 9 -2 7 -11 -5 -15 -20 -16 -19 -52 15 -20 19 -53 63 -72 98 -20 35 -42 66
-49 69 -16 6 -53 -16 -83 -48 -22 -24 -61 -129 -61 -165 0 -25 27 -39 46 -23
7 5 16 25 20 42 6 31 42 107 45 97 8 -27 24 -327 18 -334 -23 -25 -30 16 -27
148 2 75 0 136 -4 136 -4 0 -12 -19 -19 -43 -6 -23 -13 -48 -15 -55 -5 -19
-28 -24 -57 -13 -32 13 -34 32 -9 114 18 63 79 138 135 166 25 14 32 13 65 -5
20 -10 52 -32 71 -49 31 -27 33 -27 18 -5 -19 28 -93 80 -114 80 -27 0 -11 19
50 60 34 24 72 52 85 63 12 11 22 15 22 9 0 -18 -49 -106 -67 -120 -9 -6 -12
-12 -6 -12 5 0 17 8 25 18 24 26 70 122 65 135 -2 7 7 28 20 47 12 19 23 40
23 47 0 13 22 18 32 7 3 -3 -1 -26 -8 -51 -24 -81 -13 -151 32 -204 10 -11 11
-24 5 -45 -8 -29 -7 -90 4 -304 8 -141 11 -169 18 -177 16 -16 20 12 9 65 -14
72 -28 422 -16 422 19 0 32 -17 37 -45 l4 -30 2 33 c1 23 6 32 19 32 19 -1 39
-26 87 -110 28 -50 31 -60 17 -60 -9 0 -30 11 -46 25 -35 30 -46 25 -46 -22 0
-56 -14 -29 -21 40 l-6 62 1 -75 c1 -63 4 -75 19 -78 12 -3 19 5 23 27 7 35
11 36 38 16 11 -8 28 -15 38 -15 13 0 25 -14 38 -42 10 -23 17 -45 14 -49 -2
-4 4 -5 15 -2 11 3 21 -2 25 -12 5 -15 2 -17 -26 -11 l-33 6 24 -18 23 -19
-36 -21 c-34 -20 -56 -55 -56 -88 0 -8 4 -12 10 -9 5 3 10 16 10 29 0 23 37
66 57 66 6 0 13 7 17 15 10 26 26 16 26 -15 0 -16 5 -30 10 -30 6 0 10 16 10
36 0 24 4 34 13 31 6 -2 12 -15 12 -30 0 -14 3 -29 8 -33 4 -4 7 13 7 37 0 31
6 49 19 61 10 8 21 22 23 29 3 8 8 11 12 8 6 -6 -1 -44 -20 -111 -3 -10 -1
-18 3 -18 10 0 33 79 33 113 0 13 -5 28 -10 33 -17 17 0 45 24 42 19 -3 21 -9
20 -58 0 -30 -5 -82 -10 -115 -8 -55 -12 -61 -49 -82 -46 -26 -83 -29 -111 -8
-10 8 -26 15 -34 15 -35 0 20 -32 61 -37 35 -4 55 1 98 24 l54 28 4 117 5 118
-26 10 c-16 6 -26 17 -26 30 0 11 -7 20 -15 20 -8 0 -22 15 -31 32 -29 56 -57
88 -77 88 -26 0 -75 -54 -79 -87 -5 -44 -22 -36 -56 27 -18 33 -40 67 -48 75
-13 12 -14 24 -6 61 6 25 9 71 9 100 -2 49 -6 58 -39 89 l-36 34 19 61 c10 33
16 74 14 90 -3 17 -7 43 -10 60 -4 29 -3 30 33 30 45 0 130 -58 169 -115 26
-38 102 -202 173 -370 23 -55 50 -118 60 -140 23 -52 58 -164 74 -241 11 -51
11 -67 0 -93 -7 -17 -9 -33 -4 -36 5 -3 14 12 21 33 11 39 12 37 -53 302 -6
25 -16 54 -23 65 -13 22 -103 228 -125 285 -23 60 -99 210 -120 238 -12 15
-42 39 -68 53 -51 28 -117 106 -152 179 -12 25 -25 53 -31 62 -13 25 -11 38 6
38 37 0 86 174 74 262 -24 164 -29 194 -35 208 -4 8 -8 22 -9 30 -11 69 -135
291 -187 335 -58 49 -149 106 -180 111 -18 4 -55 12 -83 20 -54 14 -211 15
-262 2z m557 -633 c-7 -8 -18 -15 -24 -15 -6 0 -2 7 8 15 25 19 32 19 16 0z
m60 -24 c0 -9 -7 -25 -15 -35 -8 -11 -15 -24 -15 -30 0 -6 8 0 17 14 l17 24 8
-30 c21 -73 39 -192 34 -222 -7 -43 -20 -58 -62 -72 -44 -15 -65 1 -84 63 -7
23 -21 67 -31 96 -15 45 -16 58 -6 70 18 22 47 89 47 107 0 8 4 13 9 10 4 -3
18 6 31 19 18 19 26 22 37 14 7 -6 13 -19 13 -28z m-135 -230 c3 -20 10 -55
15 -79 11 -47 13 -83 5 -104 -4 -11 -19 -12 -75 -4 l-69 10 -15 65 -15 65 62
57 c55 51 63 56 74 42 7 -9 15 -33 18 -52z m-445 -58 l60 -28 0 -51 c0 -43 -5
-56 -36 -92 -19 -23 -41 -42 -47 -42 -8 0 -12 28 -12 90 0 49 -5 94 -11 100
-7 7 -9 -16 -6 -79 2 -50 2 -101 -2 -115 -6 -25 -35 -45 -85 -61 -23 -7 -23
-7 -17 55 4 34 11 94 16 133 5 40 10 96 10 126 l0 53 35 -31 c19 -16 62 -43
95 -58z m323 -175 c67 -152 64 -319 -8 -470 l-18 -37 -42 29 c-55 38 -93 83
-121 146 -33 71 -41 114 -21 114 9 0 19 5 22 10 4 7 -2 9 -18 5 -20 -5 -25 -2
-31 17 -9 35 -7 186 3 192 5 3 12 21 15 40 9 45 52 79 141 112 l30 11 12 -57
c6 -31 23 -81 36 -112z m313 91 c21 -42 13 -76 -33 -137 -28 -39 -40 -48 -50
-40 -7 6 -13 14 -13 19 0 4 -11 19 -24 32 -28 28 -42 83 -32 123 5 20 10 24
19 15 16 -16 69 -14 93 4 10 8 20 15 21 15 1 0 10 -14 19 -31z m-806 -123
c-11 -72 -16 -86 -36 -95 -31 -14 -31 -6 0 72 14 34 28 75 32 90 13 57 16 16
4 -67z m859 -8 c16 -18 27 -36 25 -40 -10 -15 -48 -8 -71 14 -21 20 -22 23 -6
40 9 10 18 18 20 18 2 0 16 -15 32 -32z m-51 -50 c30 -33 42 -71 42 -133 0
-46 -5 -60 -29 -87 l-30 -33 -44 44 c-49 47 -60 78 -48 133 7 31 62 97 82 98
3 0 15 -10 27 -22z m-692 -279 c74 -55 203 -125 276 -148 36 -12 55 -27 46
-37 -3 -2 -54 9 -115 24 -166 43 -289 120 -364 229 l-29 42 21 15 c20 14 24
12 56 -27 20 -23 69 -67 109 -98z m597 55 c11 -11 -30 -78 -75 -120 -47 -44
-111 -94 -121 -94 -20 0 3 32 86 121 93 99 99 104 110 93z m140 -70 c40 -39
42 -50 31 -162 -7 -63 -19 -78 -55 -67 -9 3 -27 25 -40 48 -37 71 -28 217 14
217 7 0 29 -16 50 -36z m272 -307 c10 -17 23 -41 28 -52 4 -11 15 -25 24 -32
35 -27 -30 -173 -78 -173 -17 0 -26 27 -20 63 0 4 -3 7 -9 7 -5 0 -10 -4 -10
-10 0 -5 -4 -10 -10 -10 -5 0 -10 7 -10 15 0 9 -8 28 -17 42 l-17 26 27 -7
c16 -4 27 -2 27 4 0 5 -11 12 -25 16 -14 3 -25 10 -25 15 0 16 28 21 50 9 12
-6 24 -9 28 -6 3 4 -9 12 -26 18 -31 12 -40 37 -11 29 44 -11 50 -9 18 6 -38
19 -41 37 -11 61 26 20 46 14 67 -21z"/>
<path d="M1771 1874 c0 -11 3 -14 6 -6 3 7 2 16 -1 19 -3 4 -6 -2 -5 -13z"/>
<path d="M1732 1851 c23 -30 38 -39 38 -23 0 9 -46 52 -56 52 -3 0 5 -13 18
-29z"/>
<path d="M1800 1730 c-14 -22 -28 -40 -32 -40 -5 0 -8 -5 -8 -11 0 -5 4 -8 8
-5 14 8 65 86 61 91 -3 2 -16 -14 -29 -35z"/>
<path d="M1740 1722 c6 -13 14 -21 18 -18 3 4 -2 14 -12 24 -18 16 -18 16 -6
-6z"/>
<path d="M1498 1349 c-7 -4 -16 -5 -22 -2 -5 3 -6 1 -2 -5 6 -10 36 -10 66 1
8 3 22 8 30 11 8 3 -2 4 -23 3 -21 0 -43 -4 -49 -8z"/>
<path d="M1413 1330 c-36 -21 -36 -21 -27 -44 10 -25 27 -19 22 8 -4 18 0 26
14 29 10 3 16 1 13 -3 -3 -5 -1 -11 4 -14 5 -3 11 5 13 19 6 30 2 31 -39 5z"/>
<path d="M1550 1310 c0 -13 7 -20 20 -20 11 0 20 3 20 8 0 4 -9 13 -20 20 -18
11 -20 10 -20 -8z"/>
<path d="M1484 1303 c10 -11 37 -12 30 -2 -3 5 -12 9 -21 9 -9 0 -13 -3 -9 -7z"/>
<path d="M1520 1260 c0 -5 11 -10 24 -10 14 0 28 5 31 10 4 6 -7 10 -24 10
-17 0 -31 -4 -31 -10z"/>
<path d="M1395 1235 c-16 -13 -24 -24 -17 -25 6 0 12 4 12 9 0 5 13 12 30 16
34 7 50 25 23 25 -10 0 -31 -11 -48 -25z"/>
<path d="M1503 1202 c-13 -2 -23 -8 -23 -13 0 -9 37 -3 49 7 8 7 -4 10 -26 6z"/>
<path d="M1490 1149 c0 -5 5 -7 10 -4 6 3 10 8 10 11 0 2 -4 4 -10 4 -5 0 -10
-5 -10 -11z"/>
<path d="M1798 1535 c2 -14 6 -25 8 -25 2 0 4 11 4 25 0 14 -4 25 -9 25 -4 0
-6 -11 -3 -25z"/>
<path d="M1840 1288 c0 -9 5 -20 10 -23 13 -8 13 5 0 25 -8 13 -10 13 -10 -2z"/>
<path d="M1891 1010 c15 -45 24 -54 15 -15 -4 17 -12 34 -17 40 -5 5 -4 -6 2
-25z"/>
<path d="M1550 2533 c0 -3 7 -14 16 -24 16 -18 48 -155 39 -169 -3 -4 2 -13 9
-19 19 -16 30 2 18 26 -6 10 -15 45 -22 78 -12 60 -37 115 -52 115 -4 0 -8 -3
-8 -7z"/>
<path d="M408 2473 c7 -3 16 -2 19 1 4 3 -2 6 -13 5 -11 0 -14 -3 -6 -6z"/>
<path d="M1713 2428 c9 -7 24 -22 33 -33 8 -11 12 -13 8 -5 -11 24 -36 50 -47
50 -6 0 -3 -6 6 -12z"/>
<path d="M1340 2414 c0 -10 49 -73 50 -63 0 3 -11 20 -25 39 -14 19 -25 30
-25 24z"/>
<path d="M1050 2363 c-26 -44 -50 -108 -50 -132 1 -9 9 9 20 41 11 31 29 72
41 92 11 20 19 36 16 36 -3 0 -15 -17 -27 -37z"/>
<path d="M1572 2375 c6 -14 15 -25 20 -25 5 0 1 11 -8 25 -9 14 -18 25 -20 25
-2 0 2 -11 8 -25z"/>
<path d="M1280 2362 c0 -18 -5 -43 -11 -54 -9 -16 -8 -19 3 -16 7 3 14 17 16
32 3 26 4 26 58 -29 30 -30 62 -55 72 -54 13 0 9 6 -13 22 -30 22 -52 45 -99
102 l-25 30 -1 -33z"/>
<path d="M1766 2357 c3 -10 9 -15 12 -12 3 3 0 11 -7 18 -10 9 -11 8 -5 -6z"/>
<path d="M916 2302 c-18 -35 -49 -167 -44 -184 3 -7 10 17 17 52 7 36 21 85
32 109 22 50 18 68 -5 23z"/>
<path d="M1106 2247 c3 -72 2 -79 -16 -84 -11 -3 -20 -9 -20 -14 0 -5 7 -6 15
-3 16 7 14 -20 -4 -55 -15 -26 -14 -93 1 -128 15 -37 58 -83 76 -83 8 0 1 12
-17 29 -62 58 -74 140 -30 203 23 33 23 35 2 41 -17 4 -17 5 0 6 9 0 17 6 17
12 0 6 9 8 20 4 11 -3 20 -2 20 2 0 5 12 14 28 21 26 11 26 11 -9 6 -37 -4
-37 -4 -47 43 l-11 48 5 -52 c4 -34 2 -53 -5 -53 -10 0 -17 28 -25 100 -2 19
-2 0 0 -43z"/>
<path d="M1421 2305 c13 -14 33 -31 44 -36 11 -6 3 5 -18 25 -44 41 -60 48
-26 11z"/>
<path d="M1780 2325 c0 -5 5 -17 10 -25 5 -8 10 -10 10 -5 0 6 -5 17 -10 25
-5 8 -10 11 -10 5z"/>
<path d="M1585 2295 c17 -14 37 -25 45 -24 10 0 8 3 -5 9 -12 4 -27 15 -34 24
-7 9 -19 16 -25 16 -6 -1 3 -12 19 -25z"/>
<path d="M1646 2263 c-3 -10 -2 -31 2 -48 7 -24 14 -30 38 -32 26 -2 27 -1 5
5 -25 8 -42 32 -22 32 6 0 11 -5 11 -11 0 -7 7 -8 18 -4 9 4 22 8 27 8 18 1
14 47 -4 47 -14 0 -14 -2 -1 -10 9 -6 10 -10 3 -10 -6 0 -15 5 -18 10 -10 16
-25 12 -25 -7 -1 -17 -1 -17 -11 0 -5 9 -7 22 -4 27 3 6 2 10 -4 10 -5 0 -12
-8 -15 -17z"/>
<path d="M1500 2260 c-9 -6 -10 -10 -3 -10 6 0 15 5 18 10 8 12 4 12 -15 0z"/>
<path d="M418 2253 c6 -2 18 -2 25 0 6 3 1 5 -13 5 -14 0 -19 -2 -12 -5z"/>
<path d="M1816 2240 c3 -14 11 -32 16 -40 6 -10 7 -7 2 10 -3 14 -11 32 -16
40 -6 10 -7 7 -2 -10z"/>
<path d="M1450 2240 c-8 -5 -10 -10 -5 -10 6 0 17 5 25 10 8 5 11 10 5 10 -5
0 -17 -5 -25 -10z"/>
<path d="M992 2190 c0 -14 2 -19 5 -12 2 6 2 18 0 25 -3 6 -5 1 -5 -13z"/>
<path d="M832 2178 c-7 -7 -12 -21 -12 -32 1 -18 3 -17 16 7 17 31 15 44 -4
25z"/>
<path d="M1506 2130 c4 -73 15 -86 65 -82 l39 4 -2 52 c-1 47 -2 48 -5 11 -4
-39 -16 -55 -40 -55 -22 0 -43 31 -41 61 2 31 8 35 24 19 6 -6 15 -6 24 0 13
8 13 10 -1 10 -9 0 -23 7 -30 16 -12 15 -9 16 28 13 23 -3 39 -1 37 3 -3 5
-27 8 -53 8 l-48 0 3 -60z"/>
<path d="M1630 2180 c0 -8 8 -22 17 -32 9 -10 18 -41 21 -72 4 -48 1 -56 -27
-88 -17 -20 -31 -41 -31 -48 0 -8 -9 -10 -26 -6 -17 5 -23 3 -19 -4 10 -16 45
-12 52 7 4 9 20 28 36 43 25 22 31 36 33 79 4 54 -11 96 -40 120 -13 11 -16
11 -16 1z"/>
<path d="M1438 2158 c-6 -13 -15 -47 -18 -76 -6 -49 -4 -56 24 -88 25 -29 40
-37 79 -41 33 -4 47 -2 47 7 0 7 -7 10 -16 6 -25 -10 -82 20 -98 53 -18 34
-21 97 -6 135 12 32 5 34 -12 4z"/>
<path d="M1841 2164 c0 -11 3 -14 6 -6 3 7 2 16 -1 19 -3 4 -6 -2 -5 -13z"/>
<path d="M1193 2163 c9 -2 25 -2 35 0 9 3 1 5 -18 5 -19 0 -27 -2 -17 -5z"/>
<path d="M1138 2153 c6 -2 18 -2 25 0 6 3 1 5 -13 5 -14 0 -19 -2 -12 -5z"/>
<path d="M982 2130 c0 -14 2 -19 5 -12 2 6 2 18 0 25 -3 6 -5 1 -5 -13z"/>
<path d="M1235 2140 c-3 -5 -1 -10 4 -10 6 0 11 5 11 10 0 6 -2 10 -4 10 -3 0
-8 -4 -11 -10z"/>
<path d="M1151 2131 c-17 -11 -6 -104 15 -122 8 -6 14 -18 14 -26 0 -11 3 -13
13 -5 6 5 23 12 37 14 22 3 25 8 26 48 2 61 -3 71 -32 64 -17 -5 -24 -2 -24 9
0 8 6 18 13 20 6 3 -1 6 -18 6 -16 0 -36 -3 -44 -8z m52 -55 c15 -17 18 -17
13 -3 -3 9 -3 17 1 17 11 0 32 -35 33 -55 0 -14 -10 -24 -28 -31 -36 -14 -53
3 -62 62 -6 36 -4 41 9 37 9 -3 24 -15 34 -27z"/>
<path d="M1856 2110 c8 -43 14 -51 14 -19 0 13 -5 31 -10 39 -7 11 -8 5 -4
-20z"/>
<path d="M1810 2130 c1 -15 39 -123 39 -111 1 20 -21 94 -31 106 -4 5 -8 7 -8
5z"/>
<path d="M1281 2107 c58 -44 23 -197 -49 -213 -48 -10 -59 -17 -39 -21 46 -11
122 51 134 108 4 21 13 30 42 37 l36 10 -37 1 c-28 1 -38 5 -38 17 0 25 -33
74 -50 74 -13 -1 -13 -2 1 -13z"/>
<path d="M832 2043 c-6 -20 -7 -32 -2 -27 10 10 25 64 18 64 -3 0 -10 -16 -16
-37z"/>
<path d="M1861 2044 c0 -11 3 -14 6 -6 3 7 2 16 -1 19 -3 4 -6 -2 -5 -13z"/>
<path d="M956 2017 c3 -10 9 -15 12 -12 3 3 0 11 -7 18 -10 9 -11 8 -5 -6z"/>
<path d="M385 1960 c3 -5 11 -10 16 -10 6 0 7 5 4 10 -3 6 -11 10 -16 10 -6 0
-7 -4 -4 -10z"/>
<path d="M910 1935 c0 -48 44 -165 62 -165 4 0 -2 15 -13 34 -11 19 -22 57
-26 85 -3 28 -10 51 -14 51 -5 0 -9 -2 -9 -5z"/>
<path d="M1020 1802 c6 -13 14 -21 18 -18 3 4 -2 14 -12 24 -18 16 -18 16 -6
-6z"/>
<path d="M440 1790 c-9 -6 -10 -10 -3 -10 6 0 15 5 18 10 8 12 4 12 -15 0z"/>
<path d="M440 1730 c-9 -6 -10 -10 -3 -10 6 0 15 5 18 10 8 12 4 12 -15 0z"/>
<path d="M517 1204 c-21 -20 -36 -38 -33 -41 2 -3 24 13 48 36 24 22 39 40 33
40 -5 0 -27 -16 -48 -35z"/>
<path d="M431 1219 c-26 -10 -25 -28 12 -113 l21 -49 39 42 c21 23 36 45 33
49 -4 3 -20 -10 -36 -29 -33 -39 -42 -34 -60 34 -12 40 -7 57 16 57 8 0 14 5
14 10 0 12 -7 12 -39 -1z"/>
<path d="M1324 941 c7 -11 46 -35 46 -28 0 3 -12 12 -26 22 -15 9 -23 12 -20
6z"/>
<path d="M1593 840 c13 -36 77 -122 93 -127 6 -2 19 8 28 23 17 25 17 27 -6
51 -27 30 -102 83 -116 83 -7 0 -6 -12 1 -30z m101 -49 c19 -21 13 -65 -7 -58
-13 4 -77 94 -77 108 0 11 62 -26 84 -50z"/>
<path d="M1724 803 c13 -15 17 -32 14 -54 -5 -29 -4 -30 9 -14 19 27 16 38
-14 66 -24 21 -25 21 -9 2z"/>
<path d="M1306 785 c3 -16 15 -73 25 -125 13 -59 20 -136 20 -205 0 -70 4
-103 9 -90 16 37 11 183 -10 273 -19 84 -56 207 -44 147z"/>
<path d="M1142 723 c-11 -10 -34 -38 -51 -62 -30 -43 -31 -46 -25 -125 7 -92
25 -122 79 -132 44 -8 102 18 107 48 3 26 32 35 54 17 11 -9 14 -24 10 -53 -4
-30 -3 -35 3 -21 24 51 7 95 -36 95 -13 0 -23 4 -23 8 0 5 -6 16 -12 25 -11
15 -13 9 -13 -35 0 -48 -3 -54 -29 -66 -20 -10 -38 -12 -59 -6 -47 14 -65 49
-69 132 -4 70 -2 74 32 119 45 59 64 72 88 57 9 -7 16 -19 16 -28 -1 -9 2 -16
7 -16 16 0 41 -74 35 -108 -3 -19 -1 -30 5 -27 38 24 -33 195 -81 195 -10 0
-27 -8 -38 -17z"/>
<path d="M1189 623 c-13 -16 -12 -17 4 -4 16 13 21 21 13 21 -2 0 -10 -8 -17
-17z"/>
<path d="M1893 583 c9 -2 23 -2 30 0 6 3 -1 5 -18 5 -16 0 -22 -2 -12 -5z"/>
<path d="M1890 510 c-11 -7 -5 -8 20 -4 43 8 51 14 19 14 -13 0 -31 -5 -39
-10z"/>
<path d="M1025 476 c-10 -15 -19 -48 -21 -74 l-3 -47 10 50 c6 27 17 58 26 67
9 10 14 21 10 24 -3 3 -13 -6 -22 -20z"/>
</g>
</svg>
